<svg xmlns="http://www.w3.org/2000/svg">
  <svg id="icon-apps" viewBox="0 0 24 24">
  <path fill-rule="evenodd" clip-rule="evenodd" d="M17 17H22V22H17V17ZM9.5 17H14.5V22H9.5V17ZM2 17H7V22H2V17ZM17 9.5H22V14.5H17V9.5ZM9.5 9.5H14.5V14.5H9.5V9.5ZM2 9.5H7V14.5H2V9.5ZM17 2H22V7H17V2ZM9.5 2H14.5V7H9.5V2ZM2 2H7V7H2V2Z"/>
  </svg>
  <svg id="icon-bell" viewBox="0 0 24 24" xmlns="http://www.w3.org/2000/svg">
  <path d="M11.8462 22C13.241 22 14.3725 20.8809 14.3725 19.5H9.31989C9.31989 20.8809 10.4513 22 11.8462 22ZM20.3523 16.152C19.5893 15.341 18.1617 14.1211 18.1617 10.125C18.1617 7.08984 16.0102 4.66016 13.1091 4.06406V3.25C13.1091 2.55977 12.5436 2 11.8462 2C11.1488 2 10.5832 2.55977 10.5832 3.25V4.06406C7.68217 4.66016 5.53066 7.08984 5.53066 10.125C5.53066 14.1211 4.10303 15.341 3.34005 16.152C3.1031 16.4039 2.99805 16.7051 3.00003 17C3.00437 17.6406 3.51263 18.25 4.26771 18.25H19.4247C20.1797 18.25 20.6884 17.6406 20.6923 17C20.6943 16.7051 20.5893 16.4035 20.3523 16.152Z" />
  </svg>
</svg>
